<?xml version="1.0" standalone="no"?>
<!DOCTYPE svg PUBLIC "-//W3C//DTD SVG 1.1//EN" "http://www.w3.org/Graphics/SVG/1.1/DTD/svg11.dtd" >
<svg xmlns="http://www.w3.org/2000/svg" xmlns:xlink="http://www.w3.org/1999/xlink" version="1.1">
<metadata></metadata>
<defs>
<font id="perrygothicregular" horiz-adv-x="1024" >
<font-face units-per-em="2048" ascent="1638" descent="-410" />
<missing-glyph horiz-adv-x="500" />
<glyph unicode="&#xd;" />
<glyph unicode=" " />
<glyph unicode="!" horiz-adv-x="466" d="M45 1081q0 121 39 367q31 195 78 416q22 82 47 166q109 0 156 -64q39 -53 38 -166q0 -78 -32.5 -284.5t-32.5 -315.5q0 -299 -25 -424q-10 -49 -63 -184q-98 84 -151.5 186.5t-53.5 302.5zM102 211q0 84 44 130t110 46q68 0 119 -47.5t51 -108.5q0 -49 -85 -140t-148 -91 q-31 0 -61 64.5t-30 146.5z" />
<glyph unicode="&#x22;" horiz-adv-x="835" d="M20 1212v37q29 61 119 377q57 203 140 203q57 0 98 -45t41 -86q0 -63 -152 -258q-117 -150 -194 -228h-52zM348 1206v37q29 61 119 377q57 203 139 203q57 0 98 -45t41 -86q0 -63 -151 -258q-117 -150 -195 -228h-51z" />
<glyph unicode="#" />
<glyph unicode="$" />
<glyph unicode="%" />
<glyph unicode="&#x26;" />
<glyph unicode="'" horiz-adv-x="466" d="M20 1202v37q29 61 119 377q57 203 140 203q57 0 98 -45t41 -86q0 -63 -152 -258q-117 -150 -194 -228h-52z" />
<glyph unicode="(" horiz-adv-x="575" d="M47 1075q0 326 74 633q61 260 170 479q90 182 190 293q-59 -100 -106 -223q-63 -168 -96 -348q-41 -225 -41 -488q0 -131 3 -184t13 -164q0 -254 68 -526q49 -195 145 -438q62 -149 125 -299q6 -16 6 -21q-72 96 -141 191q-162 260 -267 509q-143 344 -143 586z" />
<glyph unicode=")" horiz-adv-x="655" d="M-8 -211q0 4 6 21q61 150 125 299q92 231 143 438q70 281 70 526q8 76 12 173t4 179q0 369 -84 672q-59 215 -157 383q98 -109 188 -293q111 -223 172 -479q74 -305 74 -633q0 -242 -144 -583q-106 -256 -266 -510q-72 -96 -143 -193z" />
<glyph unicode="*" horiz-adv-x="3702" d="M49 -266v737q0 115 98 209q84 80 213 80q123 0 216.5 -89t93.5 -200v-537h-209v506q0 33 -25 68q-31 43 -76 43q-39 0 -70.5 -34t-31.5 -77v-706h-209zM55 -260h197v713q0 43 32.5 73.5t75.5 30.5q37 0 72 -32.5t35 -71.5v-510h197v522q0 76 -84 174q-98 115 -220 115 q-111 0 -208 -89.5t-97 -199.5v-725zM532 754v24l144 412h16v-43l-102 -246h28l9 19v-19l-80 -160zM707 772q16 55 34 111q37 106 58 123v-31q-6 -16 -12.5 -40t-8.5 -40q25 8 68 53t82 58h24v-43q0 -25 -24.5 -113t-48.5 -96v30q12 39 24 79t25 106q-59 -16 -117 -97 q-45 -63 -82 -100h-22zM821 -66l197 519h209v12l-103 289l72 6q-2 2 -12 10q-2 2 -10 8q0 33 -3 37q-39 -25 -75 -47q-57 -33 -88 -33q-14 0 -23 33q0 4 -4 16q0 47 73.5 134.5t135.5 87.5q8 0 33 -27q8 -8 18 -16q10 23 33.5 90t38.5 112h-283v516h209v-307h217q27 0 72 25 q117 63 117 172q0 68 -63.5 135.5t-125.5 67.5h-528v208h534q162 0 276.5 -124.5t114.5 -286.5q0 -141 -79 -246q-98 -129 -289 -154q-129 -18 -139 -28q-57 -57 -150 -377h131q0 74 38 164t65 100l-80 -196v-31q49 0 139 110.5t106 110.5q-39 -66 -53 -106 q-20 -55 -20 -121h-29v61h-14l-129 -104l295 -799v-21h-824zM836 -35v-22h802l-299 811h-209h11l221 -596v-19h-258v19l123 282l-203 6zM938 1786h535q51 0 110 -64q68 -72 68 -151q0 -129 -119 -182q-39 -16 -119 -27h-184l4 313h-195v-504h269l51 148l41 6l-49 -154h123 q18 8 53 10.5t69 14.5q82 35 158 129q94 117 94 246q0 141 -108 266q-121 139 -283 139h-518v-190zM1001 772h29q20 0 96 49q84 55 84 80q0 23 -4 33q-6 12 -26 35q-41 -23 -64 -37q-78 -47 -115 -160zM1124 152h215l-100 276q-35 -70 -65 -164q-23 -70 -50 -112zM1608 883 q6 10 12 18q35 45 111 98l118 78q25 14 41 15l27 -7q-37 -39 -88 -55q-102 -33 -178 -129h51q25 0 53 8q78 23 117 23q-10 -25 -21 -39q-63 -90 -194 -127q12 16 102 78q31 23 51 57h-22q-51 -23 -111 -39q-18 -4 -49 -10q-20 0 -20 31zM1794 -66v519h209v-308h219 q61 0 123.5 69t62.5 134q0 63 -63.5 133t-122.5 70h-428v209h117q0 47 16 100q39 129 39 139q-14 -14 -39 -24v24q37 25 74 52q35 39 61 114h-59v516h620v-208h-411v-99h411v-209h-524q-12 -18 -28.5 -49t-24.5 -49h37q18 8 43.5 14t36.5 11h43v-31q-18 -8 -29 -8 q-12 8 -41 8q-94 0 -135 -70q-37 -94 -62 -139v-31h21q0 -37 -6 -55h231q0 55 40 108.5t83 106.5q-31 20 -59 43h37l12 -12q14 -12 31 -13q2 0 30.5 12.5t42.5 12.5l23 -6q-43 -23 -82 -70q-61 -76 -94 -188q193 -55 280.5 -153.5t87.5 -258.5q0 -168 -127 -295 q-119 -119 -262 -119h-434zM1804 -57h418q141 0 265 119.5t124 285.5q0 55 -31.5 136t-81 132.5t-110.5 88.5q-82 49 -152 49h-288q-12 -25 -45 -25v25h-99v-197h432q57 0 118 -62.5t61 -146.5q0 -80 -58.5 -144.5t-120.5 -64.5h-239v307h-193v-503zM2003 1774v208h620v-208 h-620zM2013 1171h49q4 41 54 127q14 27 47 76h28v-24q-4 -6 -41 -84q-16 -37 -45 -95h439q10 18 30 19q10 0 23 -6q10 -7 20 -13v191h-411v117h411v196h-604v-504zM2013 1786h604v190h-604v-190zM2212 784q39 10 57 50q29 57 33 61v25q-29 -27 -50.5 -65t-39.5 -71z M2431 772l123 289l14 -12l-88 -234v-18q0 -20 -18 -35q-10 -8 -29 -21q2 6 0 19q0 4 -2 12zM2609 852q2 2 109 137q66 84 161 84q33 0 33 -31q0 -106 -144.5 -157t-144.5 -82q0 -12 20.5 -24.5t33.5 -12.5q29 0 108 47q96 57 121 64q-49 -57 -119.5 -96.5t-109.5 -39.5 q-27 0 -43.5 25t-16.5 55q0 12 -2 19q-6 10 -6 12zM2666 877q45 6 105 41q72 43 121 106v31h-23q-47 0 -104 -54q-96 -123 -99 -124zM2777 -66l195 519h209v12l-103 295h225l295 -805v-21h-821zM2789 -35v-22h803l-295 811h-209l230 -596v-19h-260v19l123 282l-203 6z M2935 852v31q0 25 116.5 117t159.5 92l27 -7q-92 -49 -153.5 -83.5t-112.5 -100.5h49q25 0 64.5 15.5t109.5 15.5q-25 -55 -95.5 -108.5t-125.5 -57.5q12 14 73.5 53t83.5 82h-22l-154 -49h-20zM3078 152h219q-8 12 -53 136t-49 140q-18 -31 -43 -94q-57 -156 -74 -182z" />
<glyph unicode="+" />
<glyph unicode="," horiz-adv-x="563" d="M61 -197q51 123 105 246q49 98 123 98q51 0 84 -36.5t33 -71.5q0 -49 -134 -148q-84 -59 -168 -120h-43v32z" />
<glyph unicode="-" horiz-adv-x="1167" d="M119 967q29 125 129 212t190 87q14 0 23 -2l139 -25q55 -25 109.5 -46.5t89.5 -27.5q12 -2 24 -2q53 0 95.5 29t70.5 76l58 -11q0 -23 -3 -32q-6 -16 -10 -33q-18 -106 -122.5 -222t-194.5 -116q-14 0 -21 2l-94 16q-16 2 -117 54q-53 27 -78.5 31t-106.5 28.5t-118 24.5 q-27 0 -43 -9t-20 -34z" />
<glyph unicode="." horiz-adv-x="466" d="M41 211q0 84 44 130t110 46q68 0 119 -47.5t51 -108.5q0 -49 -85 -140t-149 -91q-31 0 -60.5 64.5t-29.5 146.5z" />
<glyph unicode="/" horiz-adv-x="530" d="M-2 -121q133 326 162 430q55 203 55 377q37 385 104.5 626.5t180.5 346.5q-61 -195 -99 -391q-53 -285 -53 -580q0 -164 -100 -397q-78 -182 -178 -334q-37 -39 -72 -78z" />
<glyph unicode="0" horiz-adv-x="1734" d="M0 899v207q0 154 119 382t284 382q190 178 365 178h88q227 0 467 -289q256 -309 256 -663v-131q0 -262 -242 -607q-252 -358 -481 -358h-133q-215 0 -461 283q-262 301 -262 616zM242 1217q0 -227 247.5 -552t432.5 -325h131q12 14 51 34.5t80 41.5q31 31 82 162 q23 59 39 69v240q-37 135 -86.5 271t-155.5 243q-76 96 -131 143q-166 143 -340 144q-143 0 -234 -89q-117 -113 -116 -274v-108z" />
<glyph unicode="1" horiz-adv-x="841" d="M0 1655q0 20 139 121q92 68 262 178q143 94 150 94q35 0 98 -104q37 -61 37 -109v-1374q0 -94 51 -154q27 -31 27 -59v-35h-146q-39 0 -215 -107q-57 -35 -167 -106h-113v45q61 33 109.5 109.5t48.5 238.5v1149q0 63 -39 92q-29 20 -74 21q-16 0 -84 -13q-35 -6 -53 -6 q-31 0 -31 19z" />
<glyph unicode="2" horiz-adv-x="1622" d="M0 1419q0 254 179 441.5t417 187.5q260 0 433 -179t173 -460q0 -219 -168 -442q-203 -219 -405 -437l540 -161q49 0 122 73.5t151 153.5q23 0 28 -14q5 -10 5 -39q0 -84 -175 -305q-186 -238 -303 -238q-33 0 -180 76t-221 76h-174q-113 0 -188.5 -38t-104.5 -38 q-25 0 -44 15t-19 38q0 35 217 254q289 293 407 444q219 283 219 463q0 158 -129 269q-102 88 -174 88h-172q-66 0 -170 -96.5t-211 -196.5q-33 0 -43 14t-10 51z" />
<glyph unicode="3" horiz-adv-x="1648" d="M0 659q0 80 55 80h336v-67q-6 -2 -10 -4q-25 -18 -25 -74v-102q0 -106 111 -213q127 -121 293 -121q197 0 330 147q106 117 106 209v113q0 94 -102.5 203.5t-210.5 109.5h-191q-4 20 -4 35q4 6 4 20q0 10 197 176q94 80 94 160v135q0 76 -113 164q-121 94 -243 94 q-113 0 -193 -63q-72 -70 -143 -139q-16 0 -30.5 15t-14.5 40q0 160 188 338q141 133 326 133q213 0 364.5 -135t151.5 -314q0 -92 -62 -186q-43 -57 -84 -115q195 -131 222 -157q147 -146 147 -357q0 -242 -151 -436q-123 -158 -320 -260q-170 -88 -278 -88h-203 q-170 0 -344 174q-203 203 -203 485z" />
<glyph unicode="4" horiz-adv-x="1703" d="M0 612v56q266 442 329.5 743t69.5 311q68 111 435 326v-78q-29 -94 -56 -188q-76 -225 -170 -408q-131 -256 -286 -395q297 0 303 -4q8 -6 309 -6q20 10 27.5 94t7.5 242v241v279q82 43 168 102q164 113 188 121v-1057q0 -55 49 -55q23 0 49 10h123v-45q0 -61 -35 -151 q-49 -127 -131 -127h-55v-289q0 -35 33 -61.5t33 -61.5q0 -37 -116 -42t-163 -36q-63 -45 -125 -90q-68 -43 -141 -43q-55 0 -55 45q0 12 82.5 85t82.5 171v311h-956z" />
<glyph unicode="5" horiz-adv-x="1406" d="M0 424v176q23 12 66 12t71 -2q147 -10 209 -10v-55q-14 -41 -24.5 -63.5t-10.5 -24.5q0 -78 86 -176q98 -113 215 -113q207 0 336 194q98 150 99 273v201q0 106 -101 221q-127 145 -321 145q-45 0 -126 -30.5t-208 -102.5v911q-2 43 -2 52q0 12 8 14q6 2 37 2 q27 0 121 -55.5t157 -55.5h123q53 0 139 33q96 39 195 78q35 0 43 -14q2 -4 2 -31q0 -92 -195.5 -223t-355.5 -131q-45 0 -74 10h-55q0 -31 -8 -78t-8 -55q0 -23 16 -23t133 37q57 18 90 19h123q172 0 336 -192.5t164 -387.5v-166q0 -227 -150 -428q-125 -168 -321 -283 q-176 -102 -297 -102q-147 0 -319 123q-193 137 -193 301z" />
<glyph unicode="6" horiz-adv-x="1607" d="M0 842v332q72 360 314.5 617t504.5 257h133q106 -43 160 -66q160 -74 160 -110q-57 -82 -86 -121q-90 -123 -103 -123q-63 61 -102 92q-123 94 -217 95h-100q-150 0 -293 -193q-150 -201 -150 -426q0 -29 -1 -52.5t-1 -43.5q0 -25 2 -37q37 -260 252 -473t445 -213 q160 0 279.5 117.5t119.5 259.5q0 106 -98 221q-123 143 -312 143q-78 0 -149.5 -57t-71.5 -131q0 -100 51 -137q27 -20 27 -39q0 -20 -18.5 -32.5t-49.5 -12.5q-51 0 -121 82q-78 90 -77 184v88q0 127 116 260q141 160 338 160q256 0 404 -234q104 -164 104 -297v-233 q0 -305 -295 -529q-250 -190 -469 -190q-240 0 -450 213q-246 248 -246 629z" />
<glyph unicode="7" horiz-adv-x="1579" d="M0 1577q0 119 121 278q139 182 295 183h98q33 0 219.5 -83t218.5 -83h131q59 0 125 55q145 121 172 121q41 0 52 -25q4 -10 4 -51q0 -57 -207 -340q-283 -385 -385 -557q-209 -346 -209 -549q0 -201 137 -231.5t137 -65.5q-29 -78 -55 -114q-84 -115 -219 -115 q-59 0 -135 41q-193 104 -193 332q0 221 160 487q96 162 303 406q172 205 182 245h-24h-78q-39 0 -78 2.5t-59 8.5q-123 59 -187 88q-197 88 -241 88q-104 0 -166 -104.5t-76 -104.5q-23 0 -33 25.5t-10 62.5z" />
<glyph unicode="8" horiz-adv-x="1579" d="M0 600v178q0 131 111 262q63 76 200 185q-96 123 -119.5 177t-23.5 144q0 231 203 383q160 119 297 119h155q125 0 301 -131q188 -141 189 -270v-111q0 -90 -117 -199q-39 -35 -117 -90q125 -115 252 -227q105 -146 105 -330q0 -227 -242 -454q-252 -236 -526 -236 q-215 0 -447 219q-221 211 -221 381zM233 891q0 -207 246 -414q236 -199 434 -198q119 0 187.5 74.5t68.5 168.5q0 162 -288 363q-231 162 -480 250q-57 -47 -84 -78q-84 -92 -84 -166zM401 1714q0 -78 138 -178q100 -74 258 -150q127 -61 139 -61q49 0 102.5 59.5 t53.5 106.5q0 133 -222 268q-199 121 -325 121q-47 0 -95.5 -50t-48.5 -116z" />
<glyph unicode="9" horiz-adv-x="1728" d="M0 399q0 20 104.5 59.5t194.5 39.5q20 0 94 -177.5t283 -177.5q158 0 311 158q186 190 187 485v586q0 176 -101 357q-111 199 -242 198h-133q-88 0 -186 -96q-113 -109 -113 -238v-188q0 -195 70 -358q92 -217 262 -218q88 0 148 72q51 61 51 129q0 27 -29 93.5 t-59 138.5q0 35 35 34q20 -2 32 -2q47 0 97 -80q57 -92 57 -206q0 -229 -193 -381q-147 -117 -260 -117h-123q-119 0 -264 176q-168 203 -168 442v146q0 307 244 555q215 219 410 219h178q221 0 438 -252q248 -289 248 -688q0 -291 -170 -565q-143 -231 -371 -393 q-209 -150 -356 -150h-133q-152 0 -291 102q-100 74 -186 193q-33 51 -66 104z" />
<glyph unicode=":" horiz-adv-x="466" d="M41 211q0 84 44 130t110 46q68 0 119 -47.5t51 -108.5q0 -49 -85 -140t-149 -91q-31 0 -60.5 64.5t-29.5 146.5zM74 1161q0 84 44 130t109 46q68 0 119 -47t51 -108q0 -49 -85 -140.5t-148 -91.5q-31 0 -60.5 64.5t-29.5 146.5z" />
<glyph unicode=";" horiz-adv-x="466" d="M37 -268q29 61 119 377q57 203 139 202q57 0 98 -45t41 -86q0 -63 -151 -258q-117 -150 -195 -227h-51v37zM172 1161q0 84 44 130t110 46q68 0 119 -47t51 -108q0 -49 -85 -140.5t-149 -91.5q-31 0 -60.5 64.5t-29.5 146.5z" />
<glyph unicode="&#x3c;" />
<glyph unicode="=" />
<glyph unicode="&#x3e;" />
<glyph unicode="?" horiz-adv-x="1277" d="M0 1419q0 254 179 441.5t417 187.5q260 0 433 -179t173 -460q0 -219 -168 -442q-203 -219 -405 -437q-4 12 -4 23q113 193 194 365q90 186 90 372q0 158 -129 269q-102 88 -174 88h-172q-66 0 -170 -96.5t-211 -196.5q-33 0 -43 14t-10 51zM459 199q0 84 44 130t109 46 q68 0 119 -47.5t51 -108.5q0 -49 -85 -140t-148 -91q-31 0 -60.5 64.5t-29.5 146.5z" />
<glyph unicode="@" />
<glyph unicode="A" horiz-adv-x="1959" d="M0 1507q0 170 182 351q153 151 202 151h1h117q41 0 207 -76q55 -25 159 -78q18 16 29 23q33 25 39 25q12 0 26.5 -9.5t30.5 -38.5l-356 -241q-16 4 -154 88q-107 65 -210 65h-3q-51 0 -94 -28q-61 -41 -61 -117q0 -33 14 -74t14 -69q0 -49 -11 -58.5t-46 -9.5 q-39 0 -62.5 38t-23.5 58zM47 782q0 203 135 369q119 145 436 369q391 264 783 528h47v-39q-10 -10 -19.5 -21.5t-9.5 -25.5q125 -96 217 -246q102 -166 103 -334v-106q0 -78 10 -103.5t18 -42.5q6 -74 7 -131q0 -53 -1 -73.5t-6 -36.5q8 -12 18.5 -23.5t10.5 -25.5v-97 q0 -199 25 -290q35 -133 129 -134v-49q-23 -74 -117 -176q-86 -94 -115 -94q-82 35 -121 66q-120 95 -120 250v216v48q-14 4 -19 10q-10 14 -10 39q-2 29 -5 63.5t-3 46.5q0 16 8 33h-29q-53 -14 -112.5 -82.5t-118.5 -138.5q-115 61 -180 90q-205 92 -303 92 q-57 0 -100.5 -57.5t-55.5 -57.5q-16 0 -31.5 17.5t-15.5 40.5q0 39 141 180q158 158 246 158l520 -164l10 367q-33 170 -127 352q-79 151 -152 151h-1q-39 0 -162 -133q-156 -168 -291 -409q-94 -164 -137 -258q-96 -211 -96 -351v-175t2 -91q0 -6 -2 -22q-25 -94 -43 -140 q-57 -141 -121 -141q-39 0 -62.5 21.5t-23.5 56.5q0 29 63 129q33 51 33 92q0 37 -126 181.5t-126 301.5z" />
<glyph unicode="B" horiz-adv-x="2314" d="M0 1489q0 27 25.5 46t60.5 19q53 0 67.5 -61t84.5 -61q106 0 340 159q379 258 440 295q274 162 471 162q182 0 311 -104q66 -53 168 -197q76 -106 127 -107q4 -25 4 -30q-4 -27 -4 -35q0 -39 -74 -76q-201 -100 -219 -125q182 -111 365 -221q137 -125 137 -281 q0 -233 -305 -552.5t-529 -319.5h-86q-94 0 -244.5 75t-291.5 148q-168 80 -268 80h-97q-111 0 -149 -113.5t-86 -113.5q-43 0 -53 8q-23 18 -23 86q0 135 218 246.5t218 181.5q10 229 10 268q0 31 -10 54q0 78 4 103.5t15 39.5q-20 23 -21 41q2 12 2 20q0 12 -10 33 q-20 39 -84.5 51.5t-85.5 42.5v58q143 0 290.5 79.5t297.5 165.5h26v-65q-23 -16 -49 -62q-35 -57 -35 -100v-549q0 -39 43 -88q23 -25 23 -45q0 -23 -68 -51q-55 -23 -92 -53h142q74 0 239 -86q178 -94 359 -189h104q59 0 174 119q137 143 137 289q0 131 -219 274 q-205 133 -340 133q-180 0 -223 -128t-117 -128q-29 0 -48 23.5t-19 42.5q0 74 141 205q174 162 514 364q-49 129 -140 211t-173 82h-133q-76 0 -285 -106q-193 -100 -383 -201q-221 -109 -309 -109h-133q-43 0 -97.5 52.5t-54.5 99.5z" />
<glyph unicode="C" horiz-adv-x="1718" d="M0 854v205q0 162 122 367.5t314 349.5q170 127 336 199.5t285 72.5q59 0 262 -47q68 -14 194 -49q14 0 82 57q33 29 54 29q14 0 31.5 -17.5t17.5 -29.5q0 -25 -88 -156q-109 -162 -162 -264q-90 -174 -90 -289v-108h-78q-14 63 -14 83q0 18 10 21q4 2 4 4q0 86 14 141 q16 45 35 90q0 25 -192 127q-219 117 -361 117q-225 0 -385 -182q-149 -171 -149 -378q0 -241 168 -449q137 -172 356 -287q195 -102 321 -103h136q143 0 276 131.5t160 131.5q18 0 33.5 -19.5t15.5 -48.5q0 -51 -92 -174q-115 -152 -273 -250q-207 -129 -442 -129 q-252 0 -475 166q-186 139 -313 358q-113 195 -113 330z" />
<glyph unicode="D" horiz-adv-x="2031" d="M0 244q0 94 117 196q106 86 215 172q119 111 119 224v188q0 260 -140 276q-65 8 -65 42q0 17 8 26q10 12 39 12h84q92 0 223 56q127 61 256 123q27 0 27 -37q0 -20 -42 -60.5t-42 -81.5v-516q0 -39 28.5 -69.5t28.5 -42.5q0 -27 -90 -46.5t-145 -95.5q16 -4 44.5 -6 t114.5 -2q92 0 205 -88q94 -82 191 -162q115 -90 206 -90q166 0 322 217q147 205 147 385v84q0 262 -174 460t-381 198h-346q-74 -12 -112 -19q-119 -18 -152 -18h-254q-115 0 -196 53q-94 61 -95 164q0 96 60.5 179t128.5 83q18 0 30 -37q27 -86 138 -86q137 18 264 32.5 t207 14.5h348q309 0 518 -256q186 -227 186 -485v-207q0 -115 -57 -299t-134 -305t-251 -254q-217 -166 -377 -166h-84q-137 0 -282 119q-121 111 -240 221q-143 121 -266 121q-152 0 -186 -145.5t-97 -145.5q-25 0 -36 21.5t-11 52.5z" />
<glyph unicode="E" horiz-adv-x="1658" d="M0 920v133q0 129 88 335.5t197 327.5q74 84 254 195q225 137 370 137h123q27 0 203 -66.5t205 -66.5q74 0 131 72q27 33 49 32q29 0 39 -19t10 -56q0 -104 -138 -232.5t-271 -128.5q-49 0 -240 61.5t-215 61.5h-189q-113 0 -260 -145q-168 -164 -168 -347v-172 q0 -31 17.5 -69.5t50.5 -52.5q0 137 100 247q92 102 185 103h141q59 -14 118.5 -25.5t90.5 -11.5q53 0 99 35t71 98h57q2 -8 2 -18v-15q-2 -27 -2 -35q0 -115 -88 -247q-94 -141 -186 -142h-96q-25 0 -96.5 24.5t-121.5 24.5q-68 0 -138 -46t-70 -115q0 -29 84 -123 q104 -117 223 -189q160 -96 319 -96h285q104 0 194 86q86 94 175 189q35 0 41 -24t6 -62q0 -158 -233.5 -368t-420.5 -210h-190q-90 0 -203 51q-197 90 -375 309q-115 141 -176 310q-51 141 -51 250z" />
<glyph unicode="F" horiz-adv-x="1671" d="M0 1942q0 39 39 38q70 -41 162 -73.5t205 -32.5q86 0 340.5 87t355.5 87h143q100 0 170 -25.5t139 -52.5q6 0 37 27q14 12 23 12q20 -8 28 -12q29 -15 29 -27q0 -16 -117.5 -199.5t-162.5 -244.5h-58q-2 14 -2 35v30.5t2 40.5q0 59 -133 116.5t-225 57.5 q-74 0 -138.5 -22.5t-64.5 -54.5v-715h29q94 76 190 151q100 61 187 62h270q20 0 49 -27q4 -4 10 -12q-76 -129 -114 -193q-118 -192 -138 -192q-39 0 -49 51q-20 113 -164 113q-61 0 -153 -49q-106 -57 -107 -115v-455q0 -127 29 -190q33 -55 68 -109q-8 -12 -15 -18 q-25 -20 -63 -21q-12 0 -61.5 14.5t-63.5 14.5h-117q-41 -12 -61 -16q-61 -16 -74 -23h-47v106q4 8 33 89q4 12 14 36v1074q-10 2 -14 6q-14 12 -15 41v348q-182 68 -288.5 125t-106.5 117z" />
<glyph unicode="G" horiz-adv-x="2037" d="M0 956q0 111 80 314t178 309q145 160 358 281q158 88 340 145q137 43 191 43h153q80 0 230 -61q72 -33 143 -64q29 0 41 34t37 34q16 0 41 -20.5t25 -37.5q-102 -139 -152 -209q-154 -215 -154 -231q0 -23 58 -35q174 -39 276 -127q61 -53 122 -146t61 -151v-211 q-10 -43 -19 -84q-35 -104 -113 -211q-109 -147 -288 -280q-121 -86 -234 -146q-193 -102 -313 -102h-182q-47 6 -78 12q-186 45 -352 170q-225 170 -337 366.5t-112 407.5zM258 1178q0 -295 350 -600q334 -291 617 -291h114q111 0 242 130.5t131 241.5v125q0 111 -123 271 q-113 145 -184 170q-14 -23 -23.5 -38.5t-13.5 -37.5h-68q-12 12 -24 25q-4 6 -4 22q0 33 5 48.5t23 27.5v31q-35 8 -65.5 18t-38.5 10h-96q-39 -31 -62 -49q-43 -39 -43 -96q0 -55 52 -99q8 -6 24 -16q10 0 36 19.5t50 19.5q39 0 39 -57q0 -37 -41 -70q-78 -61 -131 -131 q-57 -86 -115 -172q-31 -39 -59 -39q-29 0 -41 6q-10 6 -10 17q0 8 10 20q0 2 4 4q-14 6 -14 17q0 14 14 40q-23 12 -71 95.5t-54 87.5v153q53 113 111.5 198t156.5 128q141 61 258 76q158 20 201 57v39q-133 57 -207 86q-225 86 -319 86h-96q-164 0 -349.5 -195.5 t-185.5 -377.5z" />
<glyph unicode="H" horiz-adv-x="1984" d="M0 1966q0 29 9 43t48 14q12 0 183 -71q84 -35 145 -35h107q135 25 292 61q213 51 293 66q8 2 25.5 2h30.5q61 0 121.5 -1t121.5 -1q82 0 215 -90q152 -102 152 -211q0 -55 -18.5 -75.5t-69.5 -20.5q-57 0 -247.5 120.5t-299.5 120.5h-78q-43 0 -186.5 -33.5t-198.5 -62.5 v-530q178 119 246 151q127 59 274 60q354 0 598 -275q211 -238 211 -493v-144q0 -158 -121 -252l-110 -78q39 -80 123 -118q71 -33 71 -63q0 -38 -27.5 -53t-70.5 -15q-113 0 -225 155q-92 129 -92 316v341v101q-18 176 -143.5 295t-282.5 119q-145 0 -307 -99.5 t-162 -169.5v-809q0 -31 30.5 -81t65.5 -101q0 -31 -16.5 -35t-42.5 -4q-20 0 -61.5 12.5t-82.5 26.5h-164q-23 0 -75 -24l-50 -25q-18 0 -34 12q-23 18 -23 45q0 16 57 99q29 41 29 75v1407q0 121 -130 200t-130 128z" />
<glyph unicode="I" horiz-adv-x="1570" d="M0 305q0 10 211 176t238 166q47 0 47 -47q0 -18 -29 -40.5t-29 -45.5q0 -55 117 -199q141 -172 274 -172q74 0 150 74q88 86 88 203v856q0 133 -58.5 168t-121.5 72q39 51 102 73q119 45 135 78q8 6 15 16q2 2 24 3q31 0 58.5 30.5t35.5 65.5q-135 -66 -268 -129 q-119 -43 -235 -43h-191l-391 125q-29 0 -59.5 -24.5t-44.5 -24.5q-12 0 -25 8q-25 18 -25 49q0 14 128 159.5t149 145.5q98 -37 199 -72q196 -71 276 -71h2h277q80 0 213 45l254 98q47 0 47 -57q-59 -76 -103 -146q-49 -80 -49 -159v-906q6 -20 17.5 -44.5t11.5 -49.5 q0 -16 -4 -44t-6 -52q-23 -162 -162 -309q-117 -121 -279 -207q-141 -74 -217 -74h-209q-115 0 -291 129t-225 129q-12 0 -29.5 15.5t-17.5 31.5z" />
<glyph unicode="J" horiz-adv-x="1593" d="M0 1942q0 39 8 57t39 18q20 0 65.5 -117.5t213.5 -117.5q76 0 224 65.5t292 128.5q178 70 301 70q113 0 260 -61q182 -76 182 -187q0 -14 -88 -79.5t-88 -172.5v-1106q33 -125 49 -190q49 -201 49 -252q-18 -63 -34 -129q-59 -145 -187 -240q-174 -129 -448 -129 q-113 0 -222 33q-139 43 -194 90q-74 84 -109 133q-109 152 -108 242v205q0 106 90 282l168 312q92 182 92 290q0 74 -53 123.5t-53 71.5q0 20 21.5 37.5t35.5 17.5q47 -25 69 -43q72 -57 72 -125v-143q0 -72 -90 -240q-141 -264 -168 -325q-90 -207 -90 -373 q0 -182 158 -321q135 -119 245 -119h84q156 0 269 112q96 96 96 181v104q-35 59 -63.5 143t-28.5 195v653q8 16 14 80t6 182q0 68 -79.5 94.5t-79.5 61.5q0 20 89 63.5t216 131.5q-27 33 -133 57q-35 8 -105 18h-160q-98 -16 -151 -22q-170 -25 -205 -25h-90q-135 0 -246 64 q-135 78 -135 201z" />
<glyph unicode="K" horiz-adv-x="1972" d="M0 1952q0 29 10 39t37 10q12 0 65.5 -43t135.5 -43q152 53 272 90q135 43 250 43q78 -10 115 -18q115 -31 114 -86v-39q-135 0 -186 -53.5t-51 -174.5v-524h65q274 143 478 385q131 176 264 354q131 156 297 156q47 0 86 -23t39 -63q0 -16 -19.5 -31.5t-38.5 -15.5h-96 h-39q-29 0 -46 -10.5t-38 -46.5l66 -62q28 -38 28 -114v-5q0 -164 -227 -301q-143 -74 -287 -147q80 -84 162 -166q74 -119 143 -367l97 -286q51 -92 158.5 -101.5t107.5 -50.5q0 -18 -162 -139q-53 -39 -162 -119q-33 0 -73 35l-41 41q-133 121 -185 248q-8 20 -61 247 q-39 168 -127 324q-57 102 -98 143q-47 47 -92 47q-27 -4 -43 -6q-104 -18 -156 -59v-744q0 -57 52 -139t52 -98q0 -39 -57 -39q-53 18 -103.5 32.5t-87.5 14.5q-86 0 -143 -18.5t-76 -18.5q-29 0 -39 6q-18 12 -18 52q0 6 43 98t43 129v1354q0 125 -214 163.5t-214 139.5z " />
<glyph unicode="L" horiz-adv-x="1871" d="M0 1802q0 41 129 68q172 35 274 61q57 14 256 74q143 43 164 43h256q88 -23 131 -39q133 -51 133 -108q0 -18 -20 -38t-49 -20q-74 37 -148 64q-85 32 -151 32h-4q-195 0 -289 -112q-84 -100 -84 -279v-1362h39q72 25 266 154q152 100 314 100q90 0 184 -55 q102 -72 147 -100q4 10 12.5 92t8.5 151q0 74 12 117q27 94 27 129v98q0 31 -21.5 88.5t-46.5 88.5v59h57q86 -86 127 -169t41 -194v-323q-2 -12 -2 -37q0 -86 68 -219q33 -63 33 -98q0 -41 -17.5 -54.5t-62.5 -13.5l-342 49h-535.5h-199.5t-210 -9t-143 -20h-176h-31 q-6 -6 -10 -8q-14 -10 -22 -10q-14 0 -19.5 15.5t-5.5 41.5q0 51 60.5 61.5t85.5 26.5v1401q0 131 -118 184.5t-118 69.5z" />
<glyph unicode="M" horiz-adv-x="2797" d="M-29 1509q0 219 170 383q143 137 262 138h136q33 0 110 -37q78 -41 158 -80q14 0 32.5 24.5t53.5 24.5q25 0 37 -8t12 -41q0 -8 -41 -45t-141 -119q-55 -59 -97 -101t-57 -42q-57 55 -135 96q-88 47 -174 47q-102 0 -168 -68q-53 -55 -53 -104v-164h-66q-29 25 -33 35 q-6 14 -6 61zM0 653v78q8 51 16 105q35 127 127 260q127 182 346 338q8 6 129 102q172 139 236 193q127 106 156 137q45 47 125 135q43 47 47 47q123 -76 182 -127q184 -158 184 -305h29q166 121 270 246q139 168 162 168q35 -39 70 -76q156 -170 176 -193 q100 -115 225 -262q4 0 78 -84q88 -102 147 -211q82 -152 82 -272v-96q0 -213 -200 -508q-209 -309 -385 -310h-107q-29 0 -98 48q-37 25 -74 49q-14 0 -49 -19q-18 -10 -29 -10q-14 0 -30.5 20.5t-16.5 36.5q109 115 162 172q166 174 184 174q37 0 43 -124.5t121 -124.5 q86 0 178 94q109 111 109 262q0 125 -195 397q-150 207 -366 451q-178 199 -207 219l-279 -260v-1067q0 -90 33 -156q14 -27 72 -102v-60h-29q-66 0 -123 19q-33 10 -49 10h-117q-41 -14 -83 -25.5t-70 -11.5q-16 0 -29 4q-29 10 -29 33q37 57 67 106.5t30 106.5v1268 q0 23 -70 98.5t-102 75.5q-27 0 -170 -150q-156 -162 -235 -281.5t-135 -273t-56 -219.5v-289l57 -268v-115q0 -31 -24.5 -68.5t-53.5 -37.5q-39 0 -62.5 25.5t-23.5 52.5q0 12 19 67q10 31 10 58q0 20 -187.5 129.5t-187.5 320.5z" />
<glyph unicode="N" horiz-adv-x="1867" d="M0 1696q0 27 117 119q145 117 293 233q72 -33 125 -139q43 -117 86 -232l485 361q258 -72 434 -271q127 -143 205 -344q10 -27 55 -184q20 -45 29 -72q29 -82 29 -139v-285q0 -82 -45.5 -184t-96.5 -139q-14 -10 -86 -31q-47 -12 -47 -47q0 -100 119 -176t119 -98 q-10 -23 -21 -33q-33 -35 -84 -35q-96 0 -186 115q-100 127 -100 295v628q0 199 -136 426q-154 260 -350 260q-23 0 -102 -51q-109 -70 -242 -186v-1211q0 -57 35 -124q27 -51 61 -84q-10 -14 -20 -26.5t-27 -12.5q-4 0 -92 23.5t-108 23.5h-87q-23 0 -65.5 -15.5 t-85.5 -31.5q-18 0 -35 12q-23 18 -22 45q0 14 36 59q12 14 39 45q6 10 9 23q2 10 2 25q-2 27 -2 43t5 34.5t15 36.5v944q-2 2 -18 0q2 25 4 63t2 46q0 43 -6 53h18q0 66 -25 125q-35 84 -98 84q-39 0 -59.5 -14.5t-36.5 -14.5q-23 0 -31 9q-8 8 -8 49z" />
<glyph unicode="O" horiz-adv-x="1755" d="M0 958q0 100 66 322q55 190 75 223q102 176 267 332q223 213 411 213h158q94 0 246 -86q129 -72 225 -186q90 -90 147 -174q143 -211 144 -418v-178q0 -129 -111 -363q-123 -258 -299 -432q-215 -211 -436 -211q-311 0 -592 279q-301 299 -301 679zM264 1108 q0 -117 121 -311q33 -53 133 -187q119 -156 275 -245q127 -74 213 -74h104q160 0 303 207q48 68 111 207v243q-57 143 -125 275q-74 141 -158 215q-96 100 -156 149q-184 152 -323 152h-160q-104 0 -221 -139.5t-117 -245.5v-246z" />
<glyph unicode="P" horiz-adv-x="2400" d="M0 1618q0 41 30.5 73.5t59.5 32.5q18 -6 34.5 -14t41.5 -27v-135q20 -8 55 -32q8 -6 58 -7q86 0 307 140q326 205 430 258q276 141 481 141h129q317 0 551 -270q213 -246 213 -514v-107q0 -219 -164 -502q-156 -268 -373 -456q-227 -199 -401 -199q-106 0 -211 51 q-113 68 -225 135v-403q0 -117 31 -178q35 -47 71 -94q0 -16 -16.5 -32t-42.5 -16q-33 14 -86 25.5t-131 11.5q-49 0 -86 -14q-82 -33 -88 -33q-27 0 -43.5 22.5t-16.5 53.5q0 6 39 84q20 41 21 76v694h-111q-76 -61 -106 -174q-8 -33 -48 -33q-23 0 -42 21.5t-19 40.5 q0 135 150 231q88 43 176 88v492q0 156 -127 172q-59 8 -60 53q0 33 27 47q123 41 289 119q61 33 196 121q101 67 132 67h1q37 0 37 -41q-53 -82 -92 -145q-45 -72 -45 -109v-776q254 -119 401 -188q117 -55 141.5 -62.5t78.5 -7.5q131 0 251 154q139 176 140 428v168 q0 276 -242 505q-211 199 -377 199h-215q-53 0 -235.5 -86t-374 -171t-299.5 -85q-119 0 -201 49q-94 57 -94 158z" />
<glyph unicode="Q" horiz-adv-x="1904" d="M0 471q0 18 106.5 86t106.5 193v577q0 45 -78 106.5t-78 75.5q0 31 127 64q90 23 154 61q53 51 80 78q90 88 110 105q154 119 282 175t249 56h86q84 -12 139 -33q166 -61 303 -207q160 -168 233.5 -322.5t73.5 -322.5v-86q0 -166 -84 -348q-92 -154 -184 -305 q29 -41 45 -62q51 -63 70 -63h57q31 6 35 6t4 -37q0 -16 -164 -143q-53 -41 -164 -125q-12 0 -53 96.5t-72 96.5q-92 -76 -227 -134.5t-283 -58.5q-141 0 -292 115q-33 25 -232 213q-120 114 -185 114h-1h-96q-4 -4 -7 -4q-18 -10 -32 -10q-29 0 -29 43zM307 567 q18 -8 43 -8q10 0 49 4t72 4q139 0 268 -94q4 -4 191 -176q100 -94 176 -94q45 0 90 20.5t92 44.5v31q-49 25 -98 51q-35 16 -76 17q-23 0 -94 -11q-6 14 -10 31q-4 8 -19 16q37 61 133 103q78 33 127 33h125q23 0 37 -5.5t68 -33.5h39l77 211v356q-35 137 -90 271.5 t-131 199.5q-106 90 -213 180q-125 80 -229 80h-107q-41 0 -110 -29q-90 -37 -158 -96v-749q0 -82 21 -138q23 -47 45 -94q0 -23 -158 -76q-51 -16 -160 -49z" />
<glyph unicode="R" horiz-adv-x="2215" d="M0 1573q0 31 19.5 50t48.5 19q57 0 75.5 -73.5t141.5 -73.5q115 0 346 143q213 133 428 267q264 143 463 143q176 0 319 -115q104 -84 178 -213q27 -59 56 -116q4 -6 52 -16.5t48 -74.5q-57 -68 -137 -122q-131 -92 -350 -207q14 -39 36 -66q31 -35 64 -67 q72 -295 135.5 -498t122.5 -238q16 -8 47 -8q16 0 61.5 4t49.5 4q4 -18 4 -32q-4 -5 -4 -19q0 -27 -39 -53q-100 -68 -119 -82q-63 -53 -111.5 -109.5t-60.5 -56.5q-131 0 -232 260q-23 57 -141 486q-72 260 -137 260q-57 0 -100 -119t-90 -119q-39 0 -49.5 34t-28.5 54 q14 16 31.5 66.5t297.5 251.5q121 84 244 161q100 63 100 88q0 104 -86 216q-115 147 -299 147q-152 0 -391 -96q-199 -90 -397 -178q-219 -96 -324 -97q-104 0 -188 56.5t-84 138.5zM399 1290q0 25 101.5 52.5t181.5 66.5q115 68 190 102q86 41 125 41q23 -14 52 -28 q-4 -8 -66 -86q-45 -57 -45 -119q0 -479 -2 -563t-16 -144q2 -12 4 -40.5t2 -90.5q0 -80 -3 -185.5t-3 -109.5q37 -47 55 -69q55 -72 55 -86q-12 -12 -18 -19q-25 -20 -43 -20q-29 0 -70 16q-102 41 -149 41q-33 0 -80 -14q-109 -33 -117 -33q-66 0 -66 57q0 23 38 61t38 87 v909q0 86 -82 119t-82 55z" />
<glyph unicode="S" horiz-adv-x="1849" d="M0 543v96q0 104 84 180t182 76q82 0 150.5 -42t68.5 -101v-29q-109 0 -149.5 -35t-40.5 -127q0 -160 154 -291q174 -147 436 -147q238 0 405.5 156.5t167.5 349.5q0 180 -126 314t-283 134q-123 0 -214.5 -60.5t-91.5 -168.5h-28q-254 0 -453 164q-215 176 -215 436 q0 250 217 434q195 166 402 166q170 0 368 -78q211 -86 424 -170q82 0 128 62.5t71 62.5q10 0 28.5 -16.5t18.5 -40.5q0 -139 -150 -289q-113 -113 -260 -113q-123 0 -277.5 87t-295.5 173q-160 92 -254 93q-98 0 -173 -71t-75 -149q0 -119 152 -245q162 -135 334 -135h266 q33 49 123 96q109 57 211 57q170 0 307 -117q102 -86 172 -231q55 -113 55 -166v-115q0 -131 -88 -292q-102 -190 -268 -308q-203 -143 -455 -143h-199q-268 0 -467.5 116.5t-314.5 332.5q-16 18 -22 30q-25 39 -25 64z" />
<glyph unicode="T" horiz-adv-x="2066" d="M0 1522q0 180 193.5 353t390.5 173h258l776 -162q176 47 241.5 66.5t122.5 38.5q23 0 49.5 -17.5t26.5 -40.5q0 -8 -180 -190q-98 -98 -135 -154q-92 -135 -168 -293q-29 -61 -72 -61q-20 0 -43.5 19.5t-23.5 37.5q0 4 62.5 131t62.5 138q-125 6 -189 10 q-186 12 -212.5 18t-121 36t-110.5 30q-80 0 -230 -166q-172 -193 -172 -379v-154q0 -121 80 -258q96 -164 258 -262q199 -121 457 -121q135 0 260 86t152 86q37 0 47 -20.5t10 -44.5q0 -96 -193 -250q-215 -172 -419 -172h-183q-240 0 -501 231q-272 242 -273 486v221 l12 102q33 131 129 273q135 197 375 381q-92 25 -166 41q-117 26 -174 26h-4q-166 0 -239.5 -162.5t-96.5 -162.5q-37 0 -47 21.5t-10 64.5z" />
<glyph unicode="U" horiz-adv-x="1921" d="M0 1753q0 33 151.5 155t170.5 122q92 -47 137 -91q137 -131 137 -337q0 -29 2 -79t2 -75v-29q0 -12 -2 -28.5t-2 -24.5t-12 -18q-4 -2 -15 -11h19q-10 -18 -15 -34q-14 -51 -14 -138v-387q0 -125 109 -254q78 -92 206 -180q102 -70 121 -70q104 70 156 107 q158 113 158 141v369q0 8 -2 8q-10 -4 -19 -8v768q0 139 -33 215q-37 63 -71 127q0 37 28 37h21q12 0 108.5 -28t118.5 -28q10 0 108.5 33t119.5 33q20 0 42.5 -14.5t22.5 -32.5q-43 -33 -73.5 -105.5t-30.5 -207.5v-1158q0 -117 84 -176q72 -51 182 -51v-37 q0 -35 -184 -153q-61 -39 -187 -113q-27 0 -123 106q-113 125 -112 226h-29q-31 -12 -330 -236q-129 -96 -164 -96q-20 0 -151 80q-174 106 -283 233q-154 180 -153 379v549q14 4 18 10q10 14 10 39v264q0 92 -55 123q-35 20 -115 21q-57 0 -57 55z" />
<glyph unicode="V" horiz-adv-x="1804" d="M0 1681q0 41 233 203q78 53 236 154q20 0 29.5 -15.5t9.5 -31.5q0 -29 -20.5 -45.5t-26.5 -67.5l610 -1436q72 51 238 316q184 293 184 416v141q0 98 -84 239q-98 164 -207 164q-33 0 -61 -20q-63 -45 -88 -45q-18 0 -28.5 15t-10.5 50q0 33 80 85t155 104q41 47 84 96 q47 45 76 45q106 0 242 -166q143 -176 143 -342v-141q0 -51 -8 -90q-23 -106 -94 -246q-98 -188 -275 -395q-133 -158 -268 -330q-121 -156 -135 -178q-20 -47 -39 -94q-37 -66 -103 -66q-49 0 -69 80q-68 270 -98 362q-35 80 -58 133q-49 119 -131 318q-20 53 -91 206.5 t-116 243.5q-84 172 -121 232q-29 49 -42 56t-37 7q-27 -2 -41 -2q-35 0 -51.5 8.5t-16.5 36.5z" />
<glyph unicode="W" horiz-adv-x="2527" d="M0 1235v158q25 236 229 440q215 215 463 215q109 0 269 -129q143 -117 143 -152q0 -18 -209 -127q-70 -35 -211 -106q-12 6 -18 10q-20 18 -21 45q0 12 14 27q33 35 33 57q0 51 -55 105q-67 65 -165 65h-3q-98 0 -165.5 -74.5t-67.5 -160.5v-150q0 -133 124 -297 q123 -143 248 -284q147 -170 178 -287h29q37 104 189 278q137 158 137 179q0 12 -97.5 105t-97.5 101q0 12 139 105q45 31 142 92q10 0 67 -64q37 -41 101 -86q78 63 117.5 92t50.5 29q6 0 35.5 -42t29.5 -52q0 -20 -43 -49q-98 -68 -98 -90q2 0 80 -127q98 -160 157 -266 q90 -164 109 -234q59 14 217 223q176 231 176 367v158q0 106 -94 244.5t-176 138.5q-14 0 -47 -17q-20 -10 -29 -10q-25 0 -40 28.5t-15 45.5q0 29 186 162q61 43 187 129q31 0 167 -191q152 -211 152 -334v-149q0 -205 -197 -461q-182 -215 -364 -428q-197 -248 -197 -430 q0 -8 -14 -23l-14 -14h-95q-51 203 -55 215q-45 152 -102 262q-94 182 -174 379q-33 80 -60 80q-25 0 -45 -28.5t-39 -55.5q-270 -334 -311 -504t-111 -348h-94q-51 254 -145 418q-61 106 -183 229q-131 133 -176 205q-47 111 -69 168q-72 180 -72 215z" />
<glyph unicode="X" horiz-adv-x="2353" d="M0 227q0 18 152 144q49 41 151 123h47v-58q0 -74 42 -118t112 -44q117 0 235 152q39 49 97 152q72 100 153.5 231t81.5 149q-70 129 -106 197q-111 205 -129 229q-68 100 -134 203q-96 119 -227 119q-43 0 -139 -33q-31 -10 -88 -33q-39 0 -39 66q0 18 119 106 q76 55 225 156q119 80 121 80q111 0 229 -131q90 -98 201 -291q84 -150 168 -299q25 16 143 203q147 233 221 328q135 172 213 172q47 0 156 -57.5t137 -57.5q47 0 79 33.5t46 33.5q16 0 35.5 -17t19.5 -40q-53 -117 -90 -174q-115 -176 -231 -176q-37 0 -117 42t-139 42 q-74 0 -158 -109q-27 -35 -69 -108q-53 -76 -80 -115q-82 -121 -82 -141q31 -57 61 -115q70 -127 129 -233q82 -143 113 -185q94 -121 190 -241q139 -109 314 -109h180v-29q-94 -70 -272 -178q-59 -35 -164 -96h-97q-131 0 -262 152q-92 106 -213 331q-170 317 -178 332 q-37 -20 -170 -240q-162 -266 -260 -378q-170 -197 -319 -197h-76q-43 0 -178 78q-154 88 -154 149z" />
<glyph unicode="Y" horiz-adv-x="1986" d="M0 1739q0 20 179 164.5t208 144.5q143 0 244 -242q51 -125 162 -555q104 -414 194 -614q39 -111 68 -164q90 -164 198 -164q8 0 126 194.5t159 276.5q20 47 92 185q96 184 96 319q0 90 -86 178q-193 199 -192 248v135q0 55 80 129t141 74h80q41 0 109 -41q84 -51 84 -113 q0 -47 -9 -57q-8 -10 -49 -18q-4 35 -12 57q-16 47 -43 47q-31 0 -55.5 -24.5t-24.5 -53.5q0 -27 114.5 -119t114.5 -178v-80q0 -88 -50 -207.5t-171 -336.5q-145 -256 -291 -510q-229 -414 -286 -510q-43 -72 -86 -125q-86 -96 -140 -144q-162 -145 -262 -145h-174 q-37 0 -133 31q-117 37 -117 73q72 113 107 168q109 170 112 170q25 -49 50 -96q51 -96 225 -96q137 0 242 129q35 43 77 131q-90 35 -198 115q-121 88 -207 254l-150 475q-4 29 -82 309q-86 309 -114 373q-68 133 -86 153q-37 39 -88 39q-53 0 -69.5 -18.5t-37.5 -18.5 q-6 0 -27.5 21.5t-21.5 36.5z" />
<glyph unicode="Z" horiz-adv-x="1943" d="M-29 1645q0 84 154 233q176 170 346 170h193q41 0 378 -111q162 -53 285 -53h96q135 0 268.5 67.5t163.5 67.5q14 0 29 -18q27 -37 39 -49l-663 -711l202 -213q-49 -47 -117.5 -100.5t-181.5 -206.5h-28q-29 119 -39.5 160t-85.5 61l-586 -614l18 -11q100 45 217 86 q238 86 361 86h162q199 0 317 -114q39 -37 78 -115q113 14 181.5 146.5t107.5 132.5q33 0 50 -21.5t17 -56.5q0 -57 -75 -160q-90 -121 -222 -201q-166 -100 -348 -100h-106q-82 0 -245 57.5t-331 116.5h-117q-164 0 -262 -78t-141 -78q-39 0 -55 19q-16 29 -31 49l856 895 l-10 18q-7 1 -15 1q-56 0 -143 -50q-80 -47 -131 -123h-57v39q0 51 143 201q174 182 338 182h86q14 0 88 74q82 82 152 168q63 78 163 170q49 45 50 80q-215 -68 -394.5 -121t-289.5 -53h-258q-109 0 -196 57t-122 164h-29q-94 -92 -141 -158q-31 -43 -61 -43q-57 0 -58 58z " />
<glyph unicode="[" />
<glyph unicode="\" horiz-adv-x="530" d="M29 1659q113 -104 180 -346t104 -627q0 -225 88 -485q12 -35 129 -322q-35 39 -69 78q-102 154 -178 332q-102 238 -103 399q0 301 -51 580q-33 176 -100 391z" />
<glyph unicode="]" />
<glyph unicode="^" />
<glyph unicode="_" />
<glyph unicode="`" />
<glyph unicode="a" horiz-adv-x="1519" d="M0 588q0 233 244 495q258 279 530 279q55 0 170 -78t164 -78q66 0 184 97h39v-39q-74 -90 -127 -177q-59 -94 -59 -206v-441q0 -129 117.5 -175t117.5 -60q-94 -66 -141 -96q-147 -98 -162 -99q-51 0 -110 68q-57 74 -115 147q-6 0 -174 -112.5t-189 -112.5 q-147 0 -303 152q-186 180 -186 436zM274 745q0 -133 144 -319q109 -141 248 -141q51 0 112 22q31 12 64 27v391q25 33 41 59q45 72 106 195v-29q-20 12 -49 13q-18 0 -32.5 -4.5t-26.5 -8.5q-82 0 -186.5 98.5t-166.5 98.5q-96 0 -164.5 -97.5t-68.5 -226.5 q0 -6 -10.5 -31.5t-10.5 -46.5z" />
<glyph unicode="b" horiz-adv-x="1423" d="M0 1823q135 76 205 112q209 113 225 113q35 0 52.5 -7t17.5 -32q-39 -25 -66 -65q-33 -49 -33 -132v-647q39 4 227.5 100.5t241.5 96.5q115 0 268.5 -172t153.5 -307v-88q0 -96 -73.5 -214t-229.5 -257q-147 -109 -225 -162q-233 -162 -275 -162q-170 0 -292 229 q-41 76 -91 232v1165q0 55 -71 131q-35 37 -35 66zM420 539q0 -80 104.5 -186.5t161.5 -106.5q86 0 199.5 129t113.5 203v157q0 115 -122 250q-129 141 -250 141q-59 0 -140 -53q-25 -16 -67 -53v-481z" />
<glyph unicode="c" horiz-adv-x="1189" d="M0 559v223q0 168 170 365q186 215 399 215q61 0 181 -43q39 -14 108 -45h78q16 0 35 12q43 29 61 29q49 0 49 -41q0 -43 -92 -139q-106 -111 -198 -111q-94 0 -273 78q-88 39 -143 39q-98 0 -168 -90q-53 -68 -53 -113v-107q0 -123 165 -299q174 -184 318 -184h125 q68 0 131 50.5t129 103.5h59v-125q0 -102 -147 -232q-168 -145 -356 -145q-268 0 -441 225q-137 180 -137 334z" />
<glyph unicode="d" horiz-adv-x="1466" d="M0 520v185q0 121 129 286q109 139 260.5 255t216.5 116h137q20 0 55.5 -14.5t102.5 -53.5l29 29v313q0 80 -54.5 124t-54.5 63q137 76 207 112q213 113 246 113q57 0 57 -39q-33 -33 -49 -53q-49 -66 -49 -123v-1579q0 -16 40 -102t40 -103q0 -49 -39 -49 q-12 0 -57.5 24.5t-100.5 24.5q-43 0 -74 -12q-68 -27 -84 -27q-29 0 -38 21.5t-9 56.5q8 31 9 55q0 20 -9 54q-117 -84 -210 -140.5t-193 -56.5q-147 0 -324 174q-184 182 -184 346zM225 725q66 -178 164 -295q109 -127 266 -127h88q49 0 95 31l82 78v528q-86 88 -181 150 q-102 67 -180 67h-2q-141 0 -227 -105.5t-86 -256.5v-50q-14 -12 -19 -20z" />
<glyph unicode="e" horiz-adv-x="1228" d="M0 549v264q0 160 166 348q178 201 354 201h98q68 0 284 -129t216 -156q0 -25 -155 -129q-123 -82 -301 -186q-166 -96 -201 -115q-186 -98 -187 -119q55 -72 99 -106q133 -109 293 -109q131 0 225 74q78 80 158 162q27 0 34 -17.5t7 -50.5q0 -156 -169 -318.5 t-313 -162.5h-137q-135 0 -303 190.5t-168 358.5zM176 774q18 -10 21.5 -46t48.5 -81q16 18 168 109q165 96 331 194q-96 47 -225 211q-43 53 -108 53q-78 0 -140 -73q-49 -86 -96 -172v-195z" />
<glyph unicode="f" horiz-adv-x="1040" d="M0 975q0 47 49 148.5t88 133.5v254q0 170 187.5 353.5t328.5 183.5h78q72 -12 107 -23q108 -32 108 -75q-47 -78 -74 -117q-80 -119 -110 -145q-47 45 -94 77q-70 49 -111 50h-119v-519q23 -12 60 -12q20 0 73.5 6t81.5 6q80 0 127 33q43 37 88 76q10 0 37 -39 q4 -6 13 -20q-59 -117 -97 -175q-115 -176 -196 -176h-195v-712q0 -106 43 -168t43 -66q0 -20 -12 -33q-6 -8 -27 -16q-6 0 -102 27q-14 4 -43 12h-88q-16 0 -51 -19.5t-87 -19.5q-39 0 -38 39q0 31 47 92q23 29 22 53v801q-61 0 -65 -29.5t-33 -29.5q-10 0 -24.5 14 t-14.5 35z" />
<glyph unicode="g" horiz-adv-x="1433" d="M0 -254q88 68 135 102q143 106 178 123q29 -150 168 -231q104 -61 193 -62q100 0 219 95q129 102 129 215v102q-16 57 -25 90q-29 100 -45 142q-102 -131 -215 -222q-123 -100 -266 -100q-201 0 -342 168q-129 154 -129 334v98q0 190 150 381q123 158 313 274 q172 106 268 107h103q27 0 141 -29q37 -8 110 -28q8 0 84 28q25 8 76 29q16 -10 23 -16q25 -23 24 -41q-53 -90 -92 -164q-45 -84 -45 -142v-137q0 -51 75 -265t75 -245v-215q0 -184 -252 -407q-262 -231 -514 -232h-88q-139 0 -304 105q-147 94 -147 143zM293 803 q0 -186 88 -324q115 -178 221 -178h100q61 39 91 61q90 72 90 127q0 33 -19.5 84.5t-19.5 71.5v86q0 94 78 223q65 109 90 121q-49 -31 -95.5 -47t-105.5 -16q-70 0 -170 42t-139 42q-76 0 -142.5 -91.5t-66.5 -201.5z" />
<glyph unicode="h" horiz-adv-x="1429" d="M-20 1802q150 82 223 123q227 123 243 123q49 0 50 -45q-47 -59 -84 -107.5t-37 -103.5q0 -59 -3 -113.5t-14 -93.5q6 -111 11.5 -220.5t5.5 -158.5v-73q-4 -55 -17 -74h37q63 12 274.5 160.5t233.5 148.5q20 0 107 -90q111 -115 176 -242q92 -178 92 -354v-129 q0 -242 -184 -504q-162 -231 -400 -397q-227 -160 -377 -160h-116q-29 0 -45.5 22.5t-16.5 39.5q0 29 97 51q276 68 477 254q88 80 162.5 260t74.5 315v111q0 160 -98 351t-166 191q-8 0 -72 -34q-150 -82 -239 -154v-661q0 -59 35.5 -120t35.5 -79q0 -25 -15 -32t-36 -7 q-41 12 -65 18q-84 20 -140 21q-23 0 -63.5 -10.5t-67.5 -28.5h-59v78q25 37 51 74q16 37 17 86v1448q0 27 -60 73q-29 23 -28 43z" />
<glyph unicode="i" horiz-adv-x="684" d="M0 1151q35 37 186.5 124t169.5 87q51 0 117 -125q20 -41 55 -125v-887q0 -63 33 -114q43 -55 60 -80v-31h-498v41q37 70 51 102q29 61 29 123v729q0 61 -36 83t-95 22q-33 0 -72 51zM266 1769q0 84 44 130.5t110 46.5q68 0 119 -47.5t51 -108.5q0 -53 -82 -178 q-88 -135 -152 -135q-29 0 -59.5 103t-30.5 189z" />
<glyph unicode="j" horiz-adv-x="696" d="M-10 -561q0 33 33 33q20 0 57 -17q10 -4 33 -16q66 37 98 61q100 76 100 146v94q0 10 -69 149q-33 66 -33 111v938q0 104 -103 133q-74 14 -106 21v30q4 27 182 135q59 35 180 105q135 0 160 -275q8 -90 8 -299v-643q0 -104 29 -233q8 -43 31 -111v-94q0 -43 -55 -123 q-138 -198 -359 -198h-2h-125q-23 0 -41 20.5t-18 32.5zM195 1458v41q66 150 131 301q61 125 151 125q59 0 102.5 -49t43.5 -90q0 -61 -164 -180q-104 -74 -207 -148h-57z" />
<glyph unicode="k" horiz-adv-x="1419" d="M0 1772q0 29 45 43q139 45 170 75q49 45 123 92q88 55 123 56q16 0 37.5 -14.5t21.5 -34.5q-43 -23 -75.5 -81.5t-32.5 -154.5v-719h49q43 39 217 148q219 137 287 137q59 0 59 -49q0 -27 -15.5 -29t-15.5 -41q31 -47 55.5 -94t24.5 -102q0 -80 -94 -137.5t-94 -80.5 q39 -23 93 -97.5t95 -235.5q33 -133 66 -181q46 -65 146 -65h3v-39q0 -31 -131 -107q-43 -25 -133 -71q-84 0 -156 160q-57 150 -114 299q-68 161 -135 161h-1q-25 0 -67 -20q-61 -31 -139 -98v-295q0 -25 34.5 -76t34.5 -72v-39h-88q-37 16 -81 32.5t-66 16.5 q-16 0 -51 -16q-61 -29 -97 -43h-41v68q39 80 57.5 146.5t22.5 70.5v1319q0 20 -68.5 90.5t-68.5 77.5zM422 659q76 23 219 119q156 103 156 148q0 14 -24.5 44.5t-24.5 112.5h-31l-295 -198v-226z" />
<glyph unicode="l" horiz-adv-x="577" d="M0 1790q133 86 205 129q215 129 270 129q20 0 33 -12q8 -7 16 -27q-37 -39 -53 -63q-55 -76 -55 -125v-1504q0 -158 51 -217q27 -31 27 -61q0 -25 -13.5 -32t-36.5 -7q-10 0 -79.5 29.5t-98.5 29.5q-45 0 -102.5 -19.5t-114.5 -39.5h-39v70q27 29 52.5 103.5t25.5 102.5 v1366q0 55 -59 103q-29 23 -29 45z" />
<glyph unicode="m" horiz-adv-x="2357" d="M0 1098q0 41 150 155q49 37 149 109q57 0 152 -148q31 -49 81 -147l404 295q72 0 197 -141q41 -47 112 -144l434 295q100 -47 199 -160q106 -123 107 -215v-573q0 -152 34 -205q23 -33 70 -33q37 0 43 -6q10 -8 10 -33q0 -12 -117.5 -95t-128.5 -83q-53 0 -146 107.5 t-93 181.5q8 51 15 241.5t7 428.5q0 45 -51 110q-59 76 -117 76q-20 0 -149 -81t-129 -105v-721q0 -10 31.5 -72.5t50.5 -103.5q-20 -12 -33 -13q-8 0 -12 7q-4 6 -6 6q-59 0 -115 14q-18 4 -43 14q-33 -6 -53 -10q-57 -14 -107 -39h-57v39q18 61 32.5 128t14.5 120v621 q0 82 -72 141q-59 49 -104 49q-76 -45 -113 -72q-115 -82 -115 -118v-682q0 -96 34 -136.5t34 -58.5t-10 -29.5t-27 -11.5q-8 0 -98 39q-47 20 -90 20q-16 0 -73.5 -24.5t-84.5 -24.5q-31 0 -39 4q-12 6 -12 35q23 31 41 89.5t18 148.5v661q0 43 -41 96.5t-84 53.5 q-29 0 -50 -5.5t-38 -9.5q-12 0 -12 15z" />
<glyph unicode="n" horiz-adv-x="1636" d="M0 1163q0 23 133 113q43 29 133 86q80 0 158 -123q49 -88 100 -176l480 289q106 -43 206 -164q109 -131 109 -242v-559q0 -184 84 -187t84 -40q0 -16 -127 -99q-41 -27 -129 -79q-23 0 -123 81q-115 94 -115 156v637q0 78 -31.5 125t-148.5 131l-299 -174v-739 q0 -96 33 -119q18 -12 18 -49v-31h-71q-6 6 -27 16q-66 33 -139 33q-55 0 -150 -49h-39q-4 18 -4 33q4 6 4 16q0 20 34 110.5t34 108.5v707q0 98 -103.5 134t-103.5 54z" />
<glyph unicode="o" horiz-adv-x="1351" d="M0 553v131q0 190 184 428q195 250 379 250h113q168 0 348 -186q205 -213 205 -492q0 -272 -242 -494q-209 -190 -377 -190q-266 0 -456 231q-154 186 -154 322zM190 848q0 -180 221.5 -385t397.5 -205q76 0 131 53q49 68 98 138v133q-41 72 -82 143q-96 158 -204 254 q-154 135 -324 135q-92 0 -165 -79t-73 -187z" />
<glyph unicode="p" horiz-adv-x="1488" d="M0 1096v59q14 14 137 100q137 96 162 97q49 0 92 -70q51 -88 105 -176l409 256q143 -55 279 -209q168 -190 168 -387v-80q0 -225 -222 -461q-211 -225 -385 -225h-81q-8 0 -97 47q-53 29 -100 43v-459q0 -10 15.5 -39.5t43.5 -58.5v-72h-51q-72 29 -92 35q-51 16 -96 17 q-35 0 -81 -15.5t-75 -15.5h-53v61q27 20 41 37q51 55 51 178v412q-23 -2 -45 -14q-66 -33 -76 -35q-12 20 -12 33q0 6 6 10t6 6q0 84 60.5 115.5t60.5 72.5v596q0 88 -45 119q-33 23 -125 23zM506 453q70 -18 147 -64q109 -63 191 -153h121q59 66 120 133q58 84 58 215 q0 186 -105 323q-74 96 -198 166q-86 47 -107 47q-12 -10 -22 -18q-68 -51 -183 -107l-6 -231h-16q2 -6 4 -52t2 -106q0 -59 -6 -100v-53z" />
<glyph unicode="q" horiz-adv-x="1474" d="M0 545v121q0 164 139 335q121 150 294 255.5t282 105.5h121q45 0 114.5 -36t143.5 -75q16 0 57 54q33 43 72 75h49v-1677q-2 -16 -2 -29q0 -37 13 -71.5t58 -77.5v-31q-16 -6 -26 -6q-14 0 -21 2q-2 2 -2 4q-51 0 -95 15.5t-85 15.5q-72 0 -127 -25.5t-72 -25.5 q-20 0 -29.5 16t-9.5 35q0 33 35 65.5t35 81.5v527q-43 -8 -180 -107q-127 -92 -238 -92q-209 0 -379 211q-147 184 -147 334zM330 768q0 -115 102 -252q133 -176 334 -176q63 0 119 22q14 6 112 58v256h19l-19 10v41l19 23l-19 18v180q0 82 -130 164t-240 82 q-127 0 -219 -104q-78 -88 -78 -164v-158z" />
<glyph unicode="r" horiz-adv-x="1163" d="M0 1126q0 23 132 128.5t151 105.5q29 -12 45 -25q104 -72 170 -200q25 6 108 114q78 100 187 101q25 0 135.5 -26.5t128.5 -51.5l-275 -402h-28q-4 16 -4 50q0 16 2 45.5t2 42.5q0 43 -17 61q-23 27 -82 27q-33 0 -85 -55.5t-52 -92.5v-753q0 -41 44 -83t44 -73 q0 -25 -13 -32t-36 -7q-31 20 -75 38.5t-101 18.5q-70 0 -117 -18.5t-98 -38.5h-25q-8 14 -24 39q33 39 49 59q49 68 49 107v735q0 92 -68 131q-74 27 -147 55z" />
<glyph unicode="s" horiz-adv-x="1296" d="M0 338q0 72 51 128t113 56q31 0 88 -26q37 -16 37 -33q0 -16 -25 -31q-53 -33 -53 -123t92 -146.5t217 -56.5q156 0 266.5 113t110.5 254q0 88 -61.5 160t-141.5 72q-61 0 -106 -62q-37 -51 -37 -84q0 -23 11 -36t18 -21v-39q-221 0 -359 112q-98 80 -147 216 q-18 63 -35 127q4 20 18 38q0 184 125 299q115 106 281 107q102 0 203.5 -39t203.5 -78q18 0 43 29t52 29h49v-29q-57 -102 -88 -154q-57 -96 -154 -96h-86q-45 0 -192.5 87t-223.5 87q-33 -14 -47 -29q-49 -47 -49 -127t94 -153q109 -86 262 -86q35 0 160 92q57 43 111 43 h78q90 0 186 -90q113 -104 113 -240v-106q0 -172 -183 -328q-203 -174 -483 -174q-195 0 -340 80q-172 94 -172 258z" />
<glyph unicode="t" horiz-adv-x="960" d="M0 1024v90q47 109 117 184q23 25 22 43v230q0 201 31 239q25 31 250 138h29v-588h198q76 0 117 24q35 27 72 56q10 0 24 -17.5t14 -44.5q0 -197 -212 -284q-70 -29 -213 -50v-520q0 -143 92 -205q66 -43 166 -43q18 0 36.5 1.5t30.5 3.5q33 0 47.5 -9.5t14.5 -33.5 q0 -10 -180.5 -124t-206.5 -114q-41 0 -177 106q-154 121 -153 211v748q-33 6 -56.5 -17.5t-31.5 -23.5q0 2 2 6q-2 4 -33 -6z" />
<glyph unicode="u" horiz-adv-x="1609" d="M0 1139q0 23 165 123t179 100q23 0 72 -66q63 -86 63 -196v-238q-8 -12 -14 -16q-14 -10 -14 -33v-217q0 -139 71 -240q79 -110 203 -110h2q43 0 131 59q104 70 105 133v740q0 14 -13 41q-18 37 -57 84v40h49q47 0 70.5 -10t50.5 -20h117q10 0 53 19.5t61 19.5 q25 0 32 -13.5t7 -35.5q-27 -39 -41 -78q-27 -68 -47 -164v-660q27 -63 53 -125q63 -14 166 -40v-41q-133 -98 -213 -152q-68 -45 -82 -45q-59 0 -206 248l-404 -248q-86 23 -233 135q-170 131 -170 219v666q0 53 -18.5 71.5t-49.5 18.5q-14 0 -32.5 -2t-20.5 -2 q-35 0 -35 35z" />
<glyph unicode="v" horiz-adv-x="1376" d="M0 1155q0 20 158 115q51 31 159 92q25 0 76 -64q66 -82 66 -180v-520q0 -147 145 -242q47 -31 148 -67q82 88 122 147q123 180 123 340q0 84 -61.5 189.5t-128.5 105.5h-105q-2 4 -15 20.5t-13 26.5q0 25 190 156q99 69 132 69h1q37 0 131 -94q121 -121 121 -254v-73 q0 -63 -43 -181q-63 -172 -180 -303q-20 -20 -51 -59q-68 -86 -131.5 -167t-153.5 -173q-16 -16 -43 -41q-12 0 -119 57q-135 74 -221 154q-121 113 -121 221v526q0 102 -34 138q-24 24 -72 24h-4h-33q-43 0 -43 37z" />
<glyph unicode="w" horiz-adv-x="2170" d="M0 1159q0 25 142.5 114t172.5 89q57 -45 86 -78q86 -98 86 -203q43 4 229.5 137.5t221.5 133.5q47 0 158 -121q127 -139 127 -264v-459q0 -82 116 -182q98 -86 125 -86t133 155q125 180 125 314v114q0 121 -100 191q-113 57 -223 114q0 10 151.5 122t180.5 112 q39 0 131 -105q110 -124 110 -251q0 -115 -62.5 -262.5t-160.5 -274.5q-168 -225 -334 -451q-30 -36 -61 -36h-2q-45 0 -230 131q-205 145 -204 223v469q0 104 -31 192q-41 121 -121 121l-258 -160v-718q0 -72 38 -130.5t38 -70.5q0 -20 -15.5 -29.5t-31.5 -9.5 q-25 0 -62 14q-88 35 -141 35q-43 0 -86 -24.5t-76 -24.5q-14 0 -35.5 14.5t-21.5 34.5q35 47 51 74q53 84 53 125q0 8 -2 8q-10 -4 -18 -8q14 25 14 104q-6 154 -10 289t-4 307q0 76 -35 115t-119 39q-16 0 -30.5 15.5t-14.5 41.5z" />
<glyph unicode="x" horiz-adv-x="1617" d="M0 133q0 6 82 121q27 37 84 115h47q0 -57 20.5 -96.5t67.5 -39.5q68 0 188 175q113 162 113 204q0 18 -55 127q-74 145 -150 230q-111 121 -221 121q-20 -2 -51 -5.5t-55 -3.5q-33 0 -33 9q0 29 147.5 145.5t163.5 116.5q63 0 156 -74q133 -106 264 -326 q106 193 189 301.5t182 108.5q12 0 88 -27q35 -12 67 -12q27 0 45.5 14.5t32.5 24.5h29q0 -2 18 -33q11 -18 11 -26q0 -78 -74 -168q-59 -74 -142 -74q-33 0 -80 12t-94 27q-37 0 -116 -90q-88 -98 -88 -174q0 -74 151 -318q166 -266 258 -266h98q12 0 30 5t20 5 q16 0 16 -39q0 -16 -113 -121q-120 -112 -167 -112h-1q-160 0 -262 131q-53 70 -123 241q-53 133 -94 134q-111 -195 -209 -338q-109 -158 -217 -158q-55 0 -131 37q-92 45 -92 96z" />
<glyph unicode="y" horiz-adv-x="1394" d="M0 1159q0 10 139 107q45 31 140 96q49 0 140 -121t91 -168v-534q0 -104 61.5 -188.5t130.5 -84.5q43 0 185 254q70 129 139 258v189q0 94 -113.5 122.5t-113.5 53.5q0 23 151 117q49 31 152 92q55 0 112 -78q51 -70 52 -125v-96q0 -115 -168 -400q-158 -252 -314 -501 q-170 -276 -170 -357q0 -82 87 -98t87 -45q0 -20 -129 -98q-43 -25 -131 -74q-10 0 -53 64.5t-43 99.5v77q0 47 55 140q74 123 80 139q-184 109 -202 123q-143 109 -144 223v621q0 80 -49 116.5t-133 36.5q-12 0 -25.5 11.5t-13.5 27.5z" />
<glyph unicode="z" horiz-adv-x="1325" d="M0 989q0 68 92 205q113 168 242 168h137q23 0 217 -45q98 -23 156 -23q66 6 102 13q113 18 152 45h80v-58q-2 0 -189 -223q-225 -268 -356 -432q-197 -244 -211 -287q260 -51 328.5 -64.5t93.5 -13.5h117q43 0 113.5 73t82.5 73q16 0 32.5 -9.5t16.5 -17.5 q0 -82 -159 -233q-168 -160 -283 -160q-51 0 -135 25q-190 55 -207 55h-158q-35 0 -92 -31t-92 -31q-39 0 -39 41q0 16 125 172q141 172 285 347q61 90 104 145q23 29 119 145q135 164 188 230h-37q-86 -29 -166 -56q-162 -53 -198 -53h-109q-63 0 -110 53q-33 41 -64 84 q-59 -47 -76.5 -121.5t-60.5 -74.5q-14 10 -21 16q-20 20 -20 43z" />
<glyph unicode="{" />
<glyph unicode="|" />
<glyph unicode="}" />
<glyph unicode="~" horiz-adv-x="1167" d="M104 1526q29 125 129.5 212t190.5 87q14 0 22 -2l140 -25q55 -25 109.5 -46t88.5 -28q12 -2 25 -2q53 0 95 29t71 76l57 -10q0 -23 -2 -33q-6 -16 -10 -33q-18 -106 -122.5 -222t-195.5 -116q-14 0 -20 2l-94 17q-16 2 -117 53q-53 27 -78.5 31t-106.5 28.5t-118 24.5 q-27 0 -43.5 -9t-20.5 -34z" />
<glyph unicode="&#xa0;" />
<glyph unicode="&#xad;" horiz-adv-x="1167" d="M119 967q29 125 129 212t190 87q14 0 23 -2l139 -25q55 -25 109.5 -46.5t89.5 -27.5q12 -2 24 -2q53 0 95.5 29t70.5 76l58 -11q0 -23 -3 -32q-6 -16 -10 -33q-18 -106 -122.5 -222t-194.5 -116q-14 0 -21 2l-94 16q-16 2 -117 54q-53 27 -78.5 31t-106.5 28.5t-118 24.5 q-27 0 -43 -9t-20 -34z" />
<glyph unicode="&#xdf;" horiz-adv-x="737" d="M0 1264v30q0 16 34 58.5t34 70.5v244q0 96 127 231q141 150 284 150q49 0 114 -14t77 -47l-160 -258q-33 23 -86 73q-33 33 -66 33q-14 0 -30.5 -26.5t-16.5 -43.5v-1566q0 -29 -45 -60q-102 -72 -182 -139v715q-4 8 -16 0q12 23 12 65q0 41 -3 59.5t-9 28.5 q8 18 12 110.5t4 285.5h-84z" />
<glyph unicode="&#xfd;" horiz-adv-x="0" />
<glyph unicode="&#x2000;" horiz-adv-x="1240" />
<glyph unicode="&#x2001;" horiz-adv-x="2480" />
<glyph unicode="&#x2002;" horiz-adv-x="1240" />
<glyph unicode="&#x2003;" horiz-adv-x="2480" />
<glyph unicode="&#x2004;" horiz-adv-x="826" />
<glyph unicode="&#x2005;" horiz-adv-x="620" />
<glyph unicode="&#x2006;" horiz-adv-x="413" />
<glyph unicode="&#x2007;" horiz-adv-x="413" />
<glyph unicode="&#x2008;" horiz-adv-x="310" />
<glyph unicode="&#x2009;" horiz-adv-x="496" />
<glyph unicode="&#x200a;" horiz-adv-x="137" />
<glyph unicode="&#x2010;" horiz-adv-x="1167" d="M119 967q29 125 129 212t190 87q14 0 23 -2l139 -25q55 -25 109.5 -46.5t89.5 -27.5q12 -2 24 -2q53 0 95.5 29t70.5 76l58 -11q0 -23 -3 -32q-6 -16 -10 -33q-18 -106 -122.5 -222t-194.5 -116q-14 0 -21 2l-94 16q-16 2 -117 54q-53 27 -78.5 31t-106.5 28.5t-118 24.5 q-27 0 -43 -9t-20 -34z" />
<glyph unicode="&#x2011;" horiz-adv-x="1167" d="M119 967q29 125 129 212t190 87q14 0 23 -2l139 -25q55 -25 109.5 -46.5t89.5 -27.5q12 -2 24 -2q53 0 95.5 29t70.5 76l58 -11q0 -23 -3 -32q-6 -16 -10 -33q-18 -106 -122.5 -222t-194.5 -116q-14 0 -21 2l-94 16q-16 2 -117 54q-53 27 -78.5 31t-106.5 28.5t-118 24.5 q-27 0 -43 -9t-20 -34z" />
<glyph unicode="&#x2012;" horiz-adv-x="1167" d="M119 967q29 125 129 212t190 87q14 0 23 -2l139 -25q55 -25 109.5 -46.5t89.5 -27.5q12 -2 24 -2q53 0 95.5 29t70.5 76l58 -11q0 -23 -3 -32q-6 -16 -10 -33q-18 -106 -122.5 -222t-194.5 -116q-14 0 -21 2l-94 16q-16 2 -117 54q-53 27 -78.5 31t-106.5 28.5t-118 24.5 q-27 0 -43 -9t-20 -34z" />
<glyph unicode="&#x2013;" horiz-adv-x="1263" d="M119 967q32 125 142.5 212t209.5 87q15 0 25 -2l154 -25q60 -25 120.5 -46.5t98.5 -27.5q14 -2 27 -2q58 0 105 29t78 76l64 -11q0 -23 -3 -32q-7 -16 -11 -33q-20 -106 -135.5 -222t-214.5 -116q-16 0 -23 2l-104 16q-18 2 -129 54q-59 27 -87 31t-117.5 28.5 t-129.5 24.5q-30 0 -48 -9t-22 -34z" />
<glyph unicode="&#x2014;" horiz-adv-x="2287" d="M119 967q64 125 284.5 212t419.5 87q31 0 51 -2l307 -25q121 -25 241 -46.5t198 -27.5q26 -2 53 -2q117 0 210.5 29t155.5 76l128 -11q0 -23 -7 -32q-13 -16 -22 -33q-39 -106 -270 -222t-429 -116q-31 0 -47 2l-207 16q-35 2 -258 54q-117 27 -173.5 31t-235 28.5 t-260.5 24.5q-60 0 -95 -9t-44 -34z" />
<glyph unicode="&#x2018;" horiz-adv-x="466" d="M53 1901q0 41 37 81q45 49 103 50q82 0 139 -201q92 -322 119 -379v-37h-52q-76 76 -192 225q-154 197 -154 261z" />
<glyph unicode="&#x2019;" horiz-adv-x="466" d="M49 1417v37q29 61 119 377q57 203 139 203q57 0 98 -45t41 -86q0 -63 -151 -258q-117 -150 -195 -228h-51z" />
<glyph unicode="&#x201c;" horiz-adv-x="835" d="M82 1907q0 41 37 82q45 49 102 49q82 0 139 -201q92 -322 119 -379v-37h-51q-76 76 -192 226q-154 197 -154 260zM410 1913q0 41 36 82q45 49 103 49q82 0 139 -201q92 -322 119 -379v-37h-51q-76 76 -193 226q-154 197 -153 260z" />
<glyph unicode="&#x201d;" horiz-adv-x="835" d="M20 1442v37q29 61 119 376q57 203 140 203q57 0 98 -45t41 -86q0 -63 -152 -258q-117 -150 -194 -227h-52zM348 1436v37q29 61 119 376q57 203 139 203q57 0 98 -45t41 -86q0 -63 -151 -258q-117 -150 -195 -227h-51z" />
<glyph unicode="&#x202f;" horiz-adv-x="496" />
<glyph unicode="&#x205f;" horiz-adv-x="620" />
<glyph unicode="&#x25fc;" horiz-adv-x="1361" d="M0 0v1362h1362v-1362h-1362z" />
</font>
</defs>
</svg>
